<svg xmlns="http://www.w3.org/2000/svg" xmlns:xlink="http://www.w3.org/1999/xlink" width="250" zoomAndPan="magnify" viewBox="0 0 187.5 112.499997" height="150" preserveAspectRatio="xMidYMid meet" version="1.0"><defs><g/></defs><path stroke-linecap="round" transform="matrix(-0.00192083, 0.579473, -0.579473, -0.00192083, 95.64186, 11.205246)" fill="none" stroke-linejoin="miter" d="M 0.496831 0.499322 L 137.279289 0.497567 " stroke="#414b33" stroke-width="1" stroke-opacity="1" stroke-miterlimit="4"/><g fill="#414b33" fill-opacity="1"><g transform="translate(34.895022, 82.9698)"><g><path d="M 34.125 0 L 5.0625 0 L 5.0625 -63.1875 L 32.734375 -63.1875 C 35.722656 -63.1875 38.226562 -62.835938 40.25 -62.140625 C 42.269531 -61.453125 43.890625 -60.554688 45.109375 -59.453125 C 46.335938 -58.359375 47.265625 -57.179688 47.890625 -55.921875 C 48.523438 -54.660156 48.945312 -53.4375 49.15625 -52.25 C 49.363281 -51.070312 49.46875 -50.0625 49.46875 -49.21875 C 49.46875 -48.289062 49.269531 -47.164062 48.875 -45.84375 C 48.476562 -44.519531 47.804688 -43.171875 46.859375 -41.796875 C 45.910156 -40.429688 44.59375 -39.207031 42.90625 -38.125 C 41.21875 -37.050781 39.109375 -36.328125 36.578125 -35.953125 C 40.078125 -35.660156 42.953125 -34.859375 45.203125 -33.546875 C 47.460938 -32.242188 49.222656 -30.664062 50.484375 -28.8125 C 51.742188 -26.957031 52.613281 -25.070312 53.09375 -23.15625 C 53.582031 -21.238281 53.828125 -19.523438 53.828125 -18.015625 C 53.828125 -16.742188 53.660156 -15.316406 53.328125 -13.734375 C 52.992188 -12.160156 52.394531 -10.570312 51.53125 -8.96875 C 50.664062 -7.375 49.492188 -5.890625 48.015625 -4.515625 C 46.546875 -3.148438 44.671875 -2.054688 42.390625 -1.234375 C 40.117188 -0.410156 37.363281 0 34.125 0 Z M 10.046875 -5.5625 C 10.046875 -3.875 10.316406 -2.734375 10.859375 -2.140625 C 11.410156 -1.554688 12.253906 -1.265625 13.390625 -1.265625 L 28.5625 -1.265625 C 34.875 -1.265625 39.660156 -2.769531 42.921875 -5.78125 C 46.191406 -8.789062 47.828125 -12.867188 47.828125 -18.015625 C 47.828125 -23.148438 46.191406 -27.253906 42.921875 -30.328125 C 39.660156 -33.398438 34.875 -34.9375 28.5625 -34.9375 L 13.265625 -34.9375 C 12.335938 -34.9375 11.578125 -34.648438 10.984375 -34.078125 C 10.398438 -33.515625 10.109375 -32.75 10.109375 -31.78125 C 10.109375 -28.5 10.097656 -25.328125 10.078125 -22.265625 C 10.054688 -19.210938 10.046875 -16.472656 10.046875 -14.046875 C 10.046875 -11.628906 10.046875 -9.660156 10.046875 -8.140625 C 10.046875 -6.628906 10.046875 -5.769531 10.046875 -5.5625 Z M 10.109375 -58.890625 L 10.109375 -39.359375 C 10.109375 -38.429688 10.398438 -37.671875 10.984375 -37.078125 C 11.578125 -36.492188 12.335938 -36.203125 13.265625 -36.203125 L 28.9375 -36.203125 C 32.269531 -36.203125 35.0625 -36.800781 37.3125 -38 C 39.5625 -39.207031 41.273438 -40.820312 42.453125 -42.84375 C 43.640625 -44.863281 44.234375 -47.050781 44.234375 -49.40625 C 44.234375 -51.769531 43.640625 -53.898438 42.453125 -55.796875 C 41.273438 -57.691406 39.5625 -59.1875 37.3125 -60.28125 C 35.0625 -61.375 32.269531 -61.921875 28.9375 -61.921875 L 13.390625 -61.921875 C 12.421875 -61.921875 11.660156 -61.71875 11.109375 -61.3125 C 10.566406 -60.914062 10.234375 -60.109375 10.109375 -58.890625 Z M 10.109375 -58.890625 "/></g></g></g><g fill="#414b33" fill-opacity="1"><g transform="translate(98.836214, 82.643027)"><g><path d="M 5.0625 0 L 5.0625 -63.1875 L 34.125 -63.1875 C 37.320312 -63.1875 40.066406 -62.773438 42.359375 -61.953125 C 44.660156 -61.128906 46.546875 -60.039062 48.015625 -58.6875 C 49.492188 -57.34375 50.664062 -55.859375 51.53125 -54.234375 C 52.394531 -52.617188 52.992188 -51.019531 53.328125 -49.4375 C 53.660156 -47.863281 53.828125 -46.441406 53.828125 -45.171875 C 53.828125 -43.910156 53.660156 -42.488281 53.328125 -40.90625 C 52.992188 -39.332031 52.394531 -37.753906 51.53125 -36.171875 C 50.664062 -34.597656 49.492188 -33.132812 48.015625 -31.78125 C 46.546875 -30.4375 44.671875 -29.34375 42.390625 -28.5 C 40.117188 -27.65625 37.363281 -27.210938 34.125 -27.171875 L 32.28125 -27.171875 C 31.363281 -27.171875 30.945312 -27.019531 31.03125 -26.71875 C 31.113281 -26.425781 31.53125 -25.988281 32.28125 -25.40625 C 34.050781 -24.007812 35.851562 -22.148438 37.6875 -19.828125 C 39.519531 -17.515625 41.597656 -14.800781 43.921875 -11.6875 C 45.222656 -9.957031 46.597656 -8.3125 48.046875 -6.75 C 49.503906 -5.195312 50.894531 -3.84375 52.21875 -2.6875 C 53.550781 -1.53125 54.679688 -0.632812 55.609375 0 L 48.46875 0 C 46.988281 -0.882812 45.46875 -2.15625 43.90625 -3.8125 C 42.351562 -5.476562 40.796875 -7.34375 39.234375 -9.40625 C 37.679688 -11.476562 36.132812 -13.546875 34.59375 -15.609375 C 33.050781 -17.671875 31.539062 -19.578125 30.0625 -21.328125 C 28.59375 -23.078125 27.164062 -24.488281 25.78125 -25.5625 C 24.394531 -26.632812 23.066406 -27.171875 21.796875 -27.171875 L 16.171875 -27.171875 L 16.171875 -28.4375 L 28.5625 -28.4375 C 34.875 -28.4375 39.660156 -29.941406 42.921875 -32.953125 C 46.191406 -35.960938 47.828125 -40.035156 47.828125 -45.171875 C 47.828125 -50.316406 46.191406 -54.394531 42.921875 -57.40625 C 39.660156 -60.414062 34.875 -61.921875 28.5625 -61.921875 L 13.390625 -61.921875 C 12.253906 -61.921875 11.410156 -61.6875 10.859375 -61.21875 C 10.316406 -60.757812 10.046875 -59.664062 10.046875 -57.9375 C 10.046875 -57.6875 10.046875 -56.6875 10.046875 -54.9375 C 10.046875 -53.1875 10.046875 -50.910156 10.046875 -48.109375 C 10.046875 -45.316406 10.046875 -42.210938 10.046875 -38.796875 C 10.046875 -35.378906 10.054688 -31.867188 10.078125 -28.265625 C 10.097656 -24.671875 10.109375 -21.1875 10.109375 -17.8125 C 10.109375 -14.445312 10.109375 -11.425781 10.109375 -8.75 C 10.109375 -6.070312 10.109375 -3.941406 10.109375 -2.359375 C 10.109375 -0.785156 10.109375 0 10.109375 0 Z M 5.0625 0 "/></g></g></g></svg>